<?xml version="1.0" standalone="no"?>
<!DOCTYPE svg PUBLIC "-//W3C//DTD SVG 20010904//EN"
 "http://www.w3.org/TR/2001/REC-SVG-20010904/DTD/svg10.dtd">
<svg version="1.0" xmlns="http://www.w3.org/2000/svg"
 width="600.000000pt" height="600.000000pt" viewBox="0 0 600.000000 600.000000"
 preserveAspectRatio="xMidYMid meet">
<metadata>
Created by potrace 1.11, written by Peter Selinger 2001-2013
</metadata>
<g transform="translate(0.000000,600.000000) scale(0.100000,-0.100000)"
fill="#000000" stroke="none">
<path d="M2643 5984 c-1025 -124 -1913 -762 -2357 -1694 -142 -299 -232 -612
-271 -946 -20 -169 -20 -519 0 -688 121 -1033 757 -1923 1695 -2370 299 -142
612 -232 946 -271 169 -20 519 -20 688 0 1033 121 1923 758 2370 1695 196 413
286 817 286 1290 0 234 -15 400 -55 595 -188 929 -798 1711 -1655 2119 -299
142 -612 232 -946 271 -160 19 -544 18 -701 -1z"/>
</g>
</svg>
